<?xml version="1.0" encoding="UTF-8" standalone="no"?>
<!-- Created with Inkscape (http://www.inkscape.org/) -->

<svg
   xmlns:dc="http://purl.org/dc/elements/1.1/"
   xmlns:cc="http://creativecommons.org/ns#"
   xmlns:rdf="http://www.w3.org/1999/02/22-rdf-syntax-ns#"
   xmlns:svg="http://www.w3.org/2000/svg"
   xmlns="http://www.w3.org/2000/svg"
   xmlns:sodipodi="http://sodipodi.sourceforge.net/DTD/sodipodi-0.dtd"
   xmlns:inkscape="http://www.inkscape.org/namespaces/inkscape"
   version="1.1"
   id="svg64"
   width="522.23999"
   height="519.7049"
   viewBox="0 0 522.23998 519.7049"
   sodipodi:docname="logomisky.svg"
   inkscape:version="0.92.4 (33fec40, 2019-01-16)"
   style="enable-background:new">
  <metadata
     id="metadata70">
    <rdf:RDF>
      <cc:Work
         rdf:about="">
        <dc:format>image/svg+xml</dc:format>
        <dc:type
           rdf:resource="http://purl.org/dc/dcmitype/StillImage" />
        <dc:title></dc:title>
      </cc:Work>
    </rdf:RDF>
  </metadata>
  <defs
     id="defs68" />
  <sodipodi:namedview
     pagecolor="#ffffff"
     bordercolor="#666666"
     borderopacity="1"
     objecttolerance="10"
     gridtolerance="10"
     guidetolerance="10"
     inkscape:pageopacity="0"
     inkscape:pageshadow="2"
     inkscape:window-width="1373"
     inkscape:window-height="755"
     id="namedview66"
     showgrid="false"
     inkscape:zoom="0.55784314"
     inkscape:cx="475.47162"
     inkscape:cy="234.4236"
     inkscape:window-x="67"
     inkscape:window-y="27"
     inkscape:window-maximized="1"
     inkscape:current-layer="layer1"
     fit-margin-top="0"
     fit-margin-left="0"
     fit-margin-right="0"
     fit-margin-bottom="0" />
  <g
     inkscape:groupmode="layer"
     id="layer1"
     inkscape:label="plan"
     sodipodi:insensitive="true"
     style="display:inline"
     transform="translate(-76.067172,-285.73578)" />
  <g
     inkscape:groupmode="layer"
     id="layer2"
     inkscape:label="logo"
     style="display:inline"
     transform="translate(-76.067172,-285.73578)">
    <path
       style="fill:#ff0000;stroke:none;stroke-width:1px;stroke-linecap:butt;stroke-linejoin:miter;stroke-opacity:1"
       d="m 152.12154,290.80607 -76.054368,486.74799 152.108728,12.6757 48.16777,-220.55768 73.51922,55.77318 60.8435,-68.44891 50.70291,248.44431 136.89786,-20.2812 -83.65981,-489.2831 H 405.63609 L 334.65202,465.73111 266.20309,285.73578 Z"
       id="path80"
       inkscape:connector-curvature="0" />
    <path
       inkscape:connector-curvature="0"
       id="path933"
       d="m 152.12154,290.80607 -76.054368,486.74799 152.108728,12.6757 48.16777,-220.55768 73.51922,55.77318 60.8435,-68.44891 50.70291,248.44431 136.89786,-20.2812 -83.65981,-489.2831 H 405.63609 L 334.65202,465.73111 266.20309,285.73578 Z"
       style="fill:#ff0000;stroke:none;stroke-width:1px;stroke-linecap:butt;stroke-linejoin:miter;stroke-opacity:1" />
    <path
       inkscape:connector-curvature="0"
       id="path943"
       d="m 152.12154,290.80607 -76.054368,486.74799 152.108728,12.6757 48.16777,-220.55768 73.51922,55.77318 60.8435,-68.44891 50.70291,248.44431 136.89786,-20.2812 -83.65981,-489.2831 H 405.63609 L 334.65202,465.73111 266.20309,285.73578 Z"
       style="fill:#ff0000;stroke:none;stroke-width:1px;stroke-linecap:butt;stroke-linejoin:miter;stroke-opacity:1" />
    <path
       style="fill:#ff0000;stroke:none;stroke-width:1px;stroke-linecap:butt;stroke-linejoin:miter;stroke-opacity:1"
       d="m 152.12154,290.80607 -76.054368,486.74799 152.108728,12.6757 48.16777,-220.55768 73.51922,55.77318 60.8435,-68.44891 50.70291,248.44431 136.89786,-20.2812 -83.65981,-489.2831 H 405.63609 L 334.65202,465.73111 266.20309,285.73578 Z"
       id="path949"
       inkscape:connector-curvature="0" />
  </g>
</svg>
